<svg width="12" height="16" viewBox="0 0 12 16" fill="none" xmlns="http://www.w3.org/2000/svg">
<path d="M6.23354 3.98797C6.88945 3.98797 7.71166 3.54453 8.20129 2.95328C8.64473 2.41746 8.96807 1.66916 8.96807 0.920862C8.96807 0.819241 8.95883 0.71762 8.94035 0.634476C8.21053 0.662191 7.33289 1.1241 6.80631 1.74307C6.39059 2.21422 6.01182 2.95328 6.01182 3.71082C6.01182 3.82168 6.03029 3.93254 6.03953 3.96949C6.08572 3.97873 6.15963 3.98797 6.23354 3.98797ZM3.92396 15.1663C4.82008 15.1663 5.21732 14.5658 6.33516 14.5658C7.47146 14.5658 7.7209 15.1478 8.71863 15.1478C9.69789 15.1478 10.3538 14.2425 10.9728 13.3556C11.6656 12.3394 11.952 11.3416 11.9705 11.2955C11.9058 11.277 10.0305 10.5102 10.0305 8.35768C10.0305 6.49155 11.5086 5.65086 11.5917 5.58619C10.6125 4.18198 9.12512 4.14502 8.71863 4.14502C7.61928 4.14502 6.72316 4.81018 6.15963 4.81018C5.5499 4.81018 4.74617 4.18198 3.79463 4.18198C1.98393 4.18198 0.145508 5.67858 0.145508 8.50549C0.145508 10.2608 0.829141 12.1177 1.66982 13.3186C2.39041 14.3348 3.01861 15.1663 3.92396 15.1663Z" fill="white"/>
</svg>
