<svg width="8" height="16" viewBox="0 0 8 16" fill="none" xmlns="http://www.w3.org/2000/svg">
<path fill-rule="evenodd" clip-rule="evenodd" d="M7.48845 0.42993C7.56328 0.494058 7.62473 0.572302 7.6693 0.660191C7.71387 0.74808 7.74068 0.843889 7.7482 0.942145C7.75572 1.0404 7.74381 1.13918 7.71314 1.23283C7.68247 1.32647 7.63364 1.41316 7.56945 1.48793L1.98845 7.99993L7.56945 14.5119C7.63736 14.5861 7.68966 14.6731 7.72325 14.7679C7.75683 14.8627 7.77103 14.9632 7.76497 15.0636C7.75892 15.1639 7.73275 15.2621 7.68802 15.3521C7.64329 15.4422 7.58091 15.5223 7.50459 15.5877C7.42827 15.6532 7.33957 15.7026 7.24376 15.7331C7.14795 15.7636 7.04699 15.7745 6.94687 15.7652C6.84676 15.7559 6.74954 15.7266 6.661 15.6789C6.57245 15.6313 6.49439 15.5663 6.43145 15.4879L0.431454 8.48793C0.31499 8.35201 0.250977 8.17892 0.250977 7.99993C0.250977 7.82094 0.31499 7.64785 0.431454 7.51193L6.43145 0.511931C6.56094 0.361116 6.745 0.26787 6.94319 0.252682C7.14138 0.237495 7.3375 0.301606 7.48845 0.430931V0.42993Z" fill="#2B2E32"/>
</svg>
