<svg width="14" height="14" viewBox="0 0 14 14" fill="none" xmlns="http://www.w3.org/2000/svg">
<path d="M9.41715 8.67949L9.0759 9.01924C9.0759 9.01924 8.26365 9.82624 6.0474 7.62274C3.83115 5.41924 4.6434 4.61223 4.6434 4.61223L4.8579 4.39773C5.38815 3.87123 5.4384 3.02523 4.97565 2.40723L4.03065 1.14498C3.45765 0.379985 2.3514 0.278735 1.69515 0.931235L0.517654 2.10123C0.192904 2.42523 -0.0245963 2.84373 0.00165372 3.30873C0.0691537 4.49898 0.607654 7.05874 3.61065 10.0452C6.7959 13.2117 9.78465 13.3377 11.0064 13.2237C11.3934 13.1877 11.7294 12.9912 12.0002 12.7212L13.0652 11.6622C13.7852 10.9475 13.5827 9.72124 12.6617 9.22099L11.2292 8.44174C10.6247 8.11324 9.88965 8.20999 9.41715 8.67949Z" fill="#619BFF"/>
</svg>
