<svg width="20" height="21" viewBox="0 0 20 21" fill="currentColor" xmlns="http://www.w3.org/2000/svg">
<path d="M11.629 18.972L11.087 19.888C10.604 20.704 9.397 20.704 8.913 19.888L8.371 18.972C7.951 18.262 7.741 17.906 7.403 17.71C7.065 17.513 6.64 17.506 5.79 17.491C4.534 17.47 3.747 17.393 3.087 17.119C2.48037 16.8677 1.92917 16.4994 1.46487 16.0351C1.00057 15.5708 0.632274 15.0196 0.381 14.413C2.98023e-08 13.495 0 12.33 0 10V9C0 5.727 0 4.09 0.737 2.888C1.14904 2.2152 1.71445 1.64945 2.387 1.237C3.59 0.5 5.228 0.5 8.5 0.5H11.5C14.773 0.5 16.41 0.5 17.613 1.237C18.2854 1.64917 18.8508 2.21456 19.263 2.887C20 4.09 20 5.728 20 9V10C20 12.33 20 13.495 19.62 14.413C19.3686 15.0197 19.0002 15.571 18.5357 16.0353C18.0712 16.4996 17.5198 16.8678 16.913 17.119C16.253 17.393 15.466 17.469 14.21 17.491C13.36 17.506 12.935 17.513 12.597 17.71C12.259 17.906 12.049 18.261 11.629 18.972Z" fill="currentColor"/>
<path d="M5.25 7.5C5.25 7.30109 5.32902 7.11032 5.46967 6.96967C5.61032 6.82902 5.80109 6.75 6 6.75H14C14.1989 6.75 14.3897 6.82902 14.5303 6.96967C14.671 7.11032 14.75 7.30109 14.75 7.5C14.75 7.69891 14.671 7.88968 14.5303 8.03033C14.3897 8.17098 14.1989 8.25 14 8.25H6C5.80109 8.25 5.61032 8.17098 5.46967 8.03033C5.32902 7.88968 5.25 7.69891 5.25 7.5ZM5.25 11C5.25 10.8011 5.32902 10.6103 5.46967 10.4697C5.61032 10.329 5.80109 10.25 6 10.25H11.5C11.6989 10.25 11.8897 10.329 12.0303 10.4697C12.171 10.6103 12.25 10.8011 12.25 11C12.25 11.1989 12.171 11.3897 12.0303 11.5303C11.8897 11.671 11.6989 11.75 11.5 11.75H6C5.80109 11.75 5.61032 11.671 5.46967 11.5303C5.32902 11.3897 5.25 11.1989 5.25 11Z" fill="#FFFFFF"/>
</svg>
