<svg width="22" height="22" viewBox="0 0 22 22" fill="none" xmlns="http://www.w3.org/2000/svg">
<path d="M8.25 11C8.25 10.8011 8.32902 10.6103 8.46967 10.4697C8.61032 10.329 8.80109 10.25 9 10.25H10.25V9C10.25 8.80109 10.329 8.61032 10.4697 8.46967C10.6103 8.32902 10.8011 8.25 11 8.25C11.1989 8.25 11.3897 8.32902 11.5303 8.46967C11.671 8.61032 11.75 8.80109 11.75 9V10.25H13C13.1989 10.25 13.3897 10.329 13.5303 10.4697C13.671 10.6103 13.75 10.8011 13.75 11C13.75 11.1989 13.671 11.3897 13.5303 11.5303C13.3897 11.671 13.1989 11.75 13 11.75H11.75V13C11.75 13.1989 11.671 13.3897 11.5303 13.5303C11.3897 13.671 11.1989 13.75 11 13.75C10.8011 13.75 10.6103 13.671 10.4697 13.5303C10.329 13.3897 10.25 13.1989 10.25 13V11.75H9C8.80109 11.75 8.61032 11.671 8.46967 11.5303C8.32902 11.3897 8.25 11.1989 8.25 11Z" fill="#717984"/>
<path fill-rule="evenodd" clip-rule="evenodd" d="M11 0.25C5.063 0.25 0.25 5.063 0.25 11C0.25 16.937 5.063 21.75 11 21.75C16.937 21.75 21.75 16.937 21.75 11C21.75 5.063 16.937 0.25 11 0.25ZM10.25 1.78C8.06313 1.9582 6.01076 2.9078 4.45928 4.45928C2.9078 6.01076 1.9582 8.06313 1.78 10.25H4C4.19891 10.25 4.38968 10.329 4.53033 10.4697C4.67098 10.6103 4.75 10.8011 4.75 11C4.75 11.1989 4.67098 11.3897 4.53033 11.5303C4.38968 11.671 4.19891 11.75 4 11.75H1.78C1.9582 13.9369 2.9078 15.9892 4.45928 17.5407C6.01076 19.0922 8.06313 20.0418 10.25 20.22V18C10.25 17.8011 10.329 17.6103 10.4697 17.4697C10.6103 17.329 10.8011 17.25 11 17.25C11.1989 17.25 11.3897 17.329 11.5303 17.4697C11.671 17.6103 11.75 17.8011 11.75 18V20.22C13.9369 20.0418 15.9892 19.0922 17.5407 17.5407C19.0922 15.9892 20.0418 13.9369 20.22 11.75H18C17.8011 11.75 17.6103 11.671 17.4697 11.5303C17.329 11.3897 17.25 11.1989 17.25 11C17.25 10.8011 17.329 10.6103 17.4697 10.4697C17.6103 10.329 17.8011 10.25 18 10.25H20.22C20.0418 8.06313 19.0922 6.01076 17.5407 4.45928C15.9892 2.9078 13.9369 1.9582 11.75 1.78V4C11.75 4.19891 11.671 4.38968 11.5303 4.53033C11.3897 4.67098 11.1989 4.75 11 4.75C10.8011 4.75 10.6103 4.67098 10.4697 4.53033C10.329 4.38968 10.25 4.19891 10.25 4V1.78Z" fill="#717984"/>
</svg>
