<svg width="20" height="18" viewBox="0 0 20 18" fill="currentColor" xmlns="http://www.w3.org/2000/svg">
<path d="M6.106 15.7472C3.298 13.5832 0 11.0422 0 6.63717C0 1.77417 5.5 -1.67483 10 3.00117L12 4.99917C12.1422 5.13165 12.3302 5.20377 12.5245 5.20034C12.7188 5.19691 12.9042 5.1182 13.0416 4.98079C13.179 4.84337 13.2577 4.65799 13.2612 4.46369C13.2646 4.26939 13.1925 4.08134 13.06 3.93917L11.13 2.00617C15.369 -1.09683 20 2.17517 20 6.63717C20 11.0422 16.702 13.5832 13.894 15.7472C13.602 15.9722 13.315 16.1922 13.038 16.4112C12 17.2292 11 18.0002 10 18.0002C9 18.0002 8 17.2302 6.962 16.4102C6.685 16.1922 6.398 15.9722 6.106 15.7472Z" fill="currentColor"/>
</svg>
