<svg width="20" height="21" viewBox="0 0 20 21" fill="none" xmlns="http://www.w3.org/2000/svg">
<path d="M11.1062 20.5H8.89416C5.44716 20.5 3.72416 20.5 2.54916 19.488C1.37416 18.476 1.13016 16.783 0.643161 13.395L0.364161 11.458C-0.0158393 8.821 -0.205839 7.502 0.335161 6.375C0.875161 5.248 2.02616 4.562 4.32716 3.192L5.71216 2.367C7.80016 1.122 8.84616 0.5 10.0002 0.5C11.1542 0.5 12.1992 1.122 14.2882 2.367L15.6732 3.192C17.9732 4.562 19.1242 5.248 19.6652 6.375C20.2052 7.502 20.0152 8.821 19.6352 11.458L19.3572 13.395C18.8702 16.783 18.6262 18.476 17.4512 19.488C16.2762 20.5 14.5532 20.5 11.1062 20.5Z" fill="currentColor"/>
<path d="M6.25 16.5C6.25 16.3011 6.32902 16.1103 6.46967 15.9697C6.61032 15.829 6.80109 15.75 7 15.75H13C13.1989 15.75 13.3897 15.829 13.5303 15.9697C13.671 16.1103 13.75 16.3011 13.75 16.5C13.75 16.6989 13.671 16.8897 13.5303 17.0303C13.3897 17.171 13.1989 17.25 13 17.25H7C6.80109 17.25 6.61032 17.171 6.46967 17.0303C6.32902 16.8897 6.25 16.6989 6.25 16.5Z" fill="#FFFFFF"/>
</svg>
