<svg width="14" height="16" viewBox="0 0 14 16" fill="none" xmlns="http://www.w3.org/2000/svg">
<path d="M13.75 7.3235V11.0682C13.75 13.3902 13.75 14.552 13.1995 15.059C12.937 15.3012 12.6055 15.4535 12.2523 15.494C11.512 15.5787 10.6473 14.8137 8.9185 13.2845C8.1535 12.6087 7.77175 12.2705 7.33 12.182C7.11219 12.1381 6.88781 12.1381 6.67 12.182C6.2275 12.2705 5.84575 12.6087 5.0815 13.2845C3.35275 14.8137 2.488 15.5787 1.74775 15.4932C1.39393 15.4527 1.06218 15.3006 0.8005 15.059C0.25 14.552 0.25 13.391 0.25 11.0682V7.32275C0.25 4.1075 0.25 2.49875 1.2385 1.49975C2.227 0.5 3.8185 0.5 7 0.5C10.1823 0.5 11.773 0.5 12.7615 1.499C13.75 2.49875 13.75 4.1075 13.75 7.3235Z" fill="currentColor"/>
<path d="M4.75 2.9375C4.60082 2.9375 4.45774 2.99676 4.35225 3.10225C4.24676 3.20774 4.1875 3.35082 4.1875 3.5C4.1875 3.64918 4.24676 3.79226 4.35225 3.89775C4.45774 4.00324 4.60082 4.0625 4.75 4.0625H9.25C9.39918 4.0625 9.54226 4.00324 9.64775 3.89775C9.75324 3.79226 9.8125 3.64918 9.8125 3.5C9.8125 3.35082 9.75324 3.20774 9.64775 3.10225C9.54226 2.99676 9.39918 2.9375 9.25 2.9375H4.75Z" fill="currentColor"/>
</svg>
