<svg width="14" height="14" viewBox="0 0 14 14" fill="none" xmlns="http://www.w3.org/2000/svg">
<path d="M5.10183 2.60525C5.9465 1.09059 6.3685 0.333252 6.99983 0.333252C7.63116 0.333252 8.05316 1.09059 8.89783 2.60525L9.1165 2.99725C9.3565 3.42792 9.4765 3.64325 9.66316 3.78525C9.84983 3.92725 10.0832 3.97992 10.5498 4.08525L10.9738 4.18125C12.6138 4.55259 13.4332 4.73792 13.6285 5.36525C13.8232 5.99192 13.2645 6.64592 12.1465 7.95325L11.8572 8.29125C11.5398 8.66259 11.3805 8.84858 11.3092 9.07792C11.2378 9.30792 11.2618 9.55592 11.3098 10.0513L11.3538 10.5026C11.5225 12.2473 11.6072 13.1193 11.0965 13.5066C10.5858 13.8946 9.81783 13.5406 8.28316 12.8339L7.88516 12.6513C7.44916 12.4499 7.23116 12.3499 6.99983 12.3499C6.7685 12.3499 6.5505 12.4499 6.11383 12.6513L5.71716 12.8339C4.18183 13.5406 3.41383 13.8939 2.90383 13.5073C2.3925 13.1193 2.47716 12.2473 2.64583 10.5026L2.68983 10.0519C2.73783 9.55592 2.76183 9.30792 2.68983 9.07858C2.61916 8.84859 2.45983 8.66258 2.1425 8.29192L1.85316 7.95325C0.735165 6.64658 0.176498 5.99259 0.371164 5.36525C0.566498 4.73792 1.3865 4.55192 3.0265 4.18125L3.4505 4.08525C3.9165 3.97992 4.14916 3.92725 4.3365 3.78525C4.52316 3.64325 4.64316 3.42792 4.88316 2.99725L5.10183 2.60525Z" fill="#FFC122"/>
</svg>
